{
  "asset": {
    "generator": "glTF-Transform v4.2.1",
    "version": "2.0"
  },
  "accessors": [
    {
      "type": "VEC3",
      "componentType": 5126,
      "count": 56640,
      "max": [
        17.114200592041016,
        -7.113500118255615,
        9.963700294494629
      ],
      "min": [
        -0.8884999752044678,
        -10.28030014038086,
        -0.05900000035762787
      ],
      "bufferView": 0,
      "byteOffset": 0
    },
    {
      "type": "VEC3",
      "componentType": 5126,
      "count": 56640,
      "bufferView": 0,
      "byteOffset": 12
    },
    {
      "type": "VEC2",
      "componentType": 5126,
      "count": 56640,
      "bufferView": 0,
      "byteOffset": 24
    },
    {
      "type": "SCALAR",
      "componentType": 5123,
      "count": 46488,
      "bufferView": 1,
      "byteOffset": 0
    },
    {
      "type": "SCALAR",
      "componentType": 5123,
      "count": 9084,
      "bufferView": 1,
      "byteOffset": 92976
    },
    {
      "type": "SCALAR",
      "componentType": 5123,
      "count": 1068,
      "bufferView": 1,
      "byteOffset": 111144
    },
    {
      "type": "SCALAR",
      "componentType": 5123,
      "count": 46488,
      "bufferView": 1,
      "byteOffset": 113280
    },
    {
      "type": "SCALAR",
      "componentType": 5123,
      "count": 9084,
      "bufferView": 1,
      "byteOffset": 206256
    },
    {
      "type": "SCALAR",
      "componentType": 5123,
      "count": 1068,
      "bufferView": 1,
      "byteOffset": 224424
    },
    {
      "type": "SCALAR",
      "componentType": 5123,
      "count": 46488,
      "bufferView": 1,
      "byteOffset": 226560
    },
    {
      "type": "SCALAR",
      "componentType": 5123,
      "count": 9084,
      "bufferView": 1,
      "byteOffset": 319536
    },
    {
      "type": "SCALAR",
      "componentType": 5123,
      "count": 1068,
      "bufferView": 1,
      "byteOffset": 337704
    },
    {
      "type": "SCALAR",
      "componentType": 5123,
      "count": 46488,
      "bufferView": 1,
      "byteOffset": 339840
    },
    {
      "type": "SCALAR",
      "componentType": 5123,
      "count": 9084,
      "bufferView": 1,
      "byteOffset": 432816
    },
    {
      "type": "SCALAR",
      "componentType": 5123,
      "count": 1068,
      "bufferView": 1,
      "byteOffset": 450984
    },
    {
      "type": "VEC3",
      "componentType": 5126,
      "count": 56640,
      "max": [
        17.114200592041016,
        -11.06410026550293,
        9.963700294494629
      ],
      "min": [
        -0.8884999752044678,
        -14.230799674987793,
        -0.05900000035762787
      ],
      "bufferView": 2,
      "byteOffset": 0
    },
    {
      "type": "VEC3",
      "componentType": 5126,
      "count": 56640,
      "bufferView": 2,
      "byteOffset": 12
    },
    {
      "type": "VEC2",
      "componentType": 5126,
      "count": 56640,
      "bufferView": 2,
      "byteOffset": 24
    },
    {
      "type": "VEC3",
      "componentType": 5126,
      "count": 56640,
      "max": [
        17.114200592041016,
        -15.014599800109863,
        9.963700294494629
      ],
      "min": [
        -0.8884999752044678,
        -18.181400299072266,
        -0.05900000035762787
      ],
      "bufferView": 3,
      "byteOffset": 0
    },
    {
      "type": "VEC3",
      "componentType": 5126,
      "count": 56640,
      "bufferView": 3,
      "byteOffset": 12
    },
    {
      "type": "VEC2",
      "componentType": 5126,
      "count": 56640,
      "bufferView": 3,
      "byteOffset": 24
    },
    {
      "type": "VEC3",
      "componentType": 5126,
      "count": 56640,
      "max": [
        17.114200592041016,
        -18.965200424194336,
        9.963700294494629
      ],
      "min": [
        -0.8884999752044678,
        -22.131999969482422,
        -0.05900000035762787
      ],
      "bufferView": 4,
      "byteOffset": 0
    },
    {
      "type": "VEC3",
      "componentType": 5126,
      "count": 56640,
      "bufferView": 4,
      "byteOffset": 12
    },
    {
      "type": "VEC2",
      "componentType": 5126,
      "count": 56640,
      "bufferView": 4,
      "byteOffset": 24
    }
  ],
  "bufferViews": [
    {
      "buffer": 0,
      "byteOffset": 0,
      "byteLength": 1812480,
      "byteStride": 32,
      "target": 34962
    },
    {
      "buffer": 0,
      "byteOffset": 1812480,
      "byteLength": 453120,
      "target": 34963
    },
    {
      "buffer": 0,
      "byteOffset": 2265600,
      "byteLength": 1812480,
      "byteStride": 32,
      "target": 34962
    },
    {
      "buffer": 0,
      "byteOffset": 4078080,
      "byteLength": 1812480,
      "byteStride": 32,
      "target": 34962
    },
    {
      "buffer": 0,
      "byteOffset": 5890560,
      "byteLength": 1812480,
      "byteStride": 32,
      "target": 34962
    }
  ],
  "buffers": [
    {
      "uri": "buffer.bin",
      "byteLength": 7703040
    }
  ],
  "materials": [
    {
      "name": "wire_115115115",
      "doubleSided": true,
      "pbrMetallicRoughness": {
        "metallicFactor": 0
      }
    },
    {
      "name": "03___Default",
      "doubleSided": true,
      "pbrMetallicRoughness": {
        "metallicFactor": 0
      }
    }
  ],
  "meshes": [
    {
      "primitives": [
        {
          "attributes": {
            "POSITION": 0,
            "NORMAL": 1,
            "TEXCOORD_0": 2
          },
          "mode": 4,
          "material": 0,
          "indices": 3
        },
        {
          "attributes": {
            "POSITION": 0,
            "NORMAL": 1,
            "TEXCOORD_0": 2
          },
          "mode": 4,
          "material": 1,
          "indices": 4
        },
        {
          "attributes": {
            "POSITION": 0,
            "NORMAL": 1,
            "TEXCOORD_0": 2
          },
          "mode": 4,
          "material": 0,
          "indices": 5
        }
      ]
    },
    {
      "primitives": [
        {
          "attributes": {
            "POSITION": 15,
            "NORMAL": 16,
            "TEXCOORD_0": 17
          },
          "mode": 4,
          "material": 0,
          "indices": 6
        },
        {
          "attributes": {
            "POSITION": 15,
            "NORMAL": 16,
            "TEXCOORD_0": 17
          },
          "mode": 4,
          "material": 1,
          "indices": 7
        },
        {
          "attributes": {
            "POSITION": 15,
            "NORMAL": 16,
            "TEXCOORD_0": 17
          },
          "mode": 4,
          "material": 0,
          "indices": 8
        }
      ]
    },
    {
      "primitives": [
        {
          "attributes": {
            "POSITION": 18,
            "NORMAL": 19,
            "TEXCOORD_0": 20
          },
          "mode": 4,
          "material": 0,
          "indices": 9
        },
        {
          "attributes": {
            "POSITION": 18,
            "NORMAL": 19,
            "TEXCOORD_0": 20
          },
          "mode": 4,
          "material": 1,
          "indices": 10
        },
        {
          "attributes": {
            "POSITION": 18,
            "NORMAL": 19,
            "TEXCOORD_0": 20
          },
          "mode": 4,
          "material": 0,
          "indices": 11
        }
      ]
    },
    {
      "primitives": [
        {
          "attributes": {
            "POSITION": 21,
            "NORMAL": 22,
            "TEXCOORD_0": 23
          },
          "mode": 4,
          "material": 0,
          "indices": 12
        },
        {
          "attributes": {
            "POSITION": 21,
            "NORMAL": 22,
            "TEXCOORD_0": 23
          },
          "mode": 4,
          "material": 1,
          "indices": 13
        },
        {
          "attributes": {
            "POSITION": 21,
            "NORMAL": 22,
            "TEXCOORD_0": 23
          },
          "mode": 4,
          "material": 0,
          "indices": 14
        }
      ]
    }
  ],
  "nodes": [
    {
      "name": "empty_2",
      "children": [
        1,
        2,
        3,
        4
      ]
    },
    {
      "name": "g coat_hanger",
      "mesh": 0
    },
    {
      "name": "g coat_hanger001",
      "mesh": 1
    },
    {
      "name": "g coat_hanger002",
      "mesh": 2
    },
    {
      "name": "g coat_hanger003",
      "mesh": 3
    }
  ],
  "scenes": [
    {
      "name": "empty_1",
      "nodes": [
        0
      ]
    }
  ],
  "scene": 0
}