{"scene":0,"asset":{"generator":"ImageToStl.com","version":"2.0"},"scenes":[{"name":"Scene","nodes":[0]}],"nodes":[{"name":"Node0","children":[1,2]},{"name":"Node1","mesh":0,"NodeMesh":{"CalculatedWidth":152,"CalculatedHeight":100.05171200000001,"CalculatedDepth":202,"MaxDimension":202}},{"name":"Node2","mesh":1,"NodeMesh":{"CalculatedWidth":155,"CalculatedHeight":79.80511,"CalculatedDepth":205,"MaxDimension":205}}],"materials":[{"name":"x1","pbrMetallicRoughness":{"baseColorFactor":[0.85,0.85,0.85,1],"metallicFactor":0.05,"roughnessFactor":0.5},"doubleSided":true}],"meshes":[{"name":"Mesh0","primitives":[{"indices":2,"material":0,"attributes":{"POSITION":0,"TEXCOORD_0":1}}]},{"name":"Mesh0","primitives":[{"indices":5,"material":0,"attributes":{"POSITION":3,"TEXCOORD_0":4}}]}],"accessors":[{"bufferView":0,"componentType":5126,"count":56,"type":"VEC3","min":[-76,-50.051712,-101],"max":[76,50,101]},{"bufferView":1,"componentType":5126,"count":56,"type":"VEC2"},{"bufferView":2,"componentType":5123,"count":540,"type":"SCALAR"},{"bufferView":3,"componentType":5126,"count":18,"type":"VEC3","min":[-77.5,27.402555,-102.5],"max":[77.5,52.402554,102.5]},{"bufferView":4,"componentType":5126,"count":18,"type":"VEC2"},{"bufferView":5,"componentType":5123,"count":90,"type":"SCALAR"}],"bufferViews":[{"buffer":0,"byteLength":672,"byteOffset":0},{"buffer":0,"byteLength":448,"byteOffset":672},{"buffer":0,"byteLength":1080,"byteOffset":1120},{"buffer":0,"byteLength":216,"byteOffset":2200},{"buffer":0,"byteLength":144,"byteOffset":2416},{"buffer":0,"byteLength":180,"byteOffset":2560}],"buffers":[{"byteLength":2740,"uri":"data:application/octet-stream;base64,"}]}